<?xml version="1.0" encoding="UTF-8" standalone="no"?>
<!DOCTYPE svg PUBLIC "-//W3C//DTD SVG 1.1//EN" "http://www.w3.org/Graphics/SVG/1.1/DTD/svg11.dtd">
<!-- Created with Vectornator (http://vectornator.io/) -->
<svg height="100%" stroke-miterlimit="10" style="fill-rule:nonzero;clip-rule:evenodd;stroke-linecap:round;stroke-linejoin:round;" version="1.1" viewBox="29.1413 340.934 225.925 146.494" width="100%" xml:space="preserve" xmlns="http://www.w3.org/2000/svg" xmlns:vectornator="http://vectornator.io" xmlns:xlink="http://www.w3.org/1999/xlink">
<defs/>
<clipPath id="ArtboardFrame">
<rect height="146.494" width="225.925" x="29.1413" y="340.934"/>
</clipPath>
<g clip-path="url(#ArtboardFrame)" id="Layer" vectornator:layerName="Layer">
<path d="M78.2603 341.084C78.8103 341.383 78.8933 341.801 78.8103 343.796C78.5833 348.994 76.8983 355.278 75.1303 357.489C74.8553 357.835 74.6643 358.146 74.6993 358.182C74.7353 358.218 74.6873 358.505 74.5923 358.803C74.2573 359.879 74.1863 360.392 74.0663 362.268C73.8033 366.737 74.7473 372.627 76.1213 375.041C76.5873 375.877 77.5553 376.917 78.2003 377.299C78.8813 377.693 79.8613 377.801 80.5063 377.538C80.7813 377.442 81.9763 377.108 83.1713 376.797C84.3773 376.499 86.0863 376.021 86.9703 375.734C90.2683 374.658 92.1323 374.288 98.1303 373.464C104.032 372.651 107.438 372.066 116.435 370.297C121.656 369.27 126.089 368.565 129.924 368.147C138.849 367.179 143.844 366.988 149.041 367.418C153.044 367.752 157.202 368.194 159.914 368.577C166.163 369.449 173.87 371.385 179.915 373.571C182.162 374.396 189.964 377.837 194.444 379.999C203.023 384.145 208.77 386.38 215.712 388.279C219.177 389.223 224.375 389.415 228.736 388.745C231.567 388.315 233.431 387.574 236.562 385.627C241.712 382.437 243.85 381.29 245.81 380.633C248.032 379.88 249.43 379.82 251.067 380.394C252.704 380.967 253.911 382.007 254.58 383.417C254.962 384.217 255.022 384.48 255.058 385.364C255.141 387.312 254.556 388.781 252.967 390.573C250.517 393.322 248.737 394.767 246.324 395.914C244.053 396.99 239.322 398.28 235.558 398.842C234.268 399.033 233.635 399.2 232.691 399.582C229.154 401.04 227.35 401.602 223.718 402.378C219.882 403.191 215.891 403.442 207.994 403.358C203.167 403.31 202.426 403.274 201.255 403.047C199.104 402.653 195.735 401.685 192.138 400.455C190.274 399.821 188.745 399.32 188.721 399.343C188.709 399.367 188.745 400.538 188.805 401.948C189.032 406.572 188.661 408.603 186.714 413.49C185.507 416.525 184.324 418.771 182.604 421.34C180.991 423.742 180.596 425.08 180.596 428.186C180.596 430.134 180.632 430.504 180.979 432.165C181.445 434.364 182.006 436.168 182.879 438.163C183.739 440.135 185.459 443.468 186.965 446.037C188.315 448.331 188.602 448.964 189.044 450.494C189.725 452.836 189.892 453.983 189.904 456.205C189.904 458.081 189.868 458.451 189.57 459.789C189.032 462.107 188.04 464.975 187.001 467.173C185.579 470.172 185.196 471.367 184.707 474.486C184.217 477.521 183.607 479.074 182.496 480.078C181.433 481.057 179.748 481.738 176.94 482.348C175.506 482.646 175.303 482.67 171.862 482.67C168.577 482.658 168.182 482.646 167.143 482.396C165.733 482.073 164.574 481.499 164.108 480.902C163.821 480.544 163.737 480.305 163.702 479.731C163.654 479.098 163.69 478.919 164.048 478.214C164.837 476.672 166.39 475.37 168.075 474.844C168.493 474.713 169.305 474.546 169.891 474.474C170.476 474.402 171.014 474.271 171.074 474.199C171.145 474.115 171.42 473.279 171.683 472.347C171.958 471.403 172.555 469.659 173.021 468.464C174.001 465.931 174.419 464.425 174.515 463.016C174.563 462.155 174.539 461.892 174.312 461.295C174.013 460.506 173.941 460.435 170.62 457.34C168.553 455.416 167.704 454.747 162.483 450.9C161.157 449.92 160.38 449.251 160.01 448.773C159.711 448.391 159.436 448.08 159.412 448.08C159.173 448.08 158.779 449.777 158.05 453.947C157.25 458.535 157.178 458.846 156.33 461.498C155.087 465.357 154.406 466.636 152.315 469.061C150.762 470.877 149.197 472.156 145.337 474.725C141.442 477.318 140.486 478.094 139.566 479.385C136.997 482.993 135.241 484.94 134.01 485.538C133.341 485.86 133.198 485.884 130.952 485.968C129.434 486.028 127.881 486.171 126.579 486.386C124.739 486.673 124.332 486.697 122.217 486.637C120.103 486.577 119.768 486.542 118.549 486.207C116.697 485.705 115.837 485.239 115.467 484.522C115.072 483.77 115.252 483.184 116.363 481.535C117.295 480.161 117.749 479.647 118.848 478.775C119.983 477.867 121.154 477.318 123.066 476.816C125.659 476.123 127.511 475.203 128.478 474.139C128.729 473.853 129.339 472.992 129.828 472.228C130.33 471.463 131.382 469.85 132.17 468.631C134.261 465.441 136.316 461.343 137.081 458.822C137.917 456.086 137.798 454.819 136.077 447.722C134.871 442.739 134.835 442.477 134.835 438.82C134.835 435.845 134.847 435.666 135.145 434.603L135.444 433.503L134.656 433.563C131.477 433.838 129.41 434.125 127.116 434.603C123.508 435.343 117.701 436.502 116.721 436.67C116.1 436.777 114.666 437.1 113.555 437.375C111.046 438.02 106.434 439.047 104.833 439.31C103.853 439.478 102.718 439.513 98.5003 439.513C95.6693 439.525 92.8133 439.466 92.1563 439.406C91.4873 439.334 90.7703 439.298 90.5553 439.334C90.1843 439.382 90.1723 439.406 90.2443 439.86C90.3163 440.314 89.7303 446.312 89.2523 450.052C89.1213 451.031 88.9063 452.68 88.7743 453.696C88.4163 456.444 88.2733 459.132 88.1653 465.106C88.0693 470.471 88.0223 471.045 87.5083 473.888C87.4123 474.438 87.2813 475.621 87.2093 476.517C86.8753 480.926 86.7073 481.941 86.1223 483.208C85.6443 484.236 85.1063 484.761 83.9713 485.287C81.7853 486.303 79.8853 486.494 73.5883 486.338C69.7653 486.255 69.4303 486.219 68.9053 485.992C67.8773 485.526 67.7223 484.606 68.3433 482.646C69.1323 480.197 69.7653 479.193 72.0833 476.756C74.6283 474.091 74.9983 473.076 74.6163 469.886C74.1143 465.62 73.4333 462.49 72.3933 459.634C72.0473 458.702 71.5453 457.173 71.2583 456.229C70.9843 455.285 70.6973 454.461 70.6373 454.401C70.5773 454.341 70.1113 455.022 69.4543 456.169C68.1403 458.499 67.4233 459.598 65.7503 461.833C62.7633 465.835 60.6963 468.954 58.6893 472.431C58.0793 473.506 57.3753 474.689 57.1243 475.059C56.4433 476.111 55.0573 477.485 53.6833 478.5C52.2613 479.552 51.8423 480.089 50.7193 482.348C50.3493 483.089 49.8713 483.889 49.6563 484.14C49.4413 484.379 49.0713 484.833 48.8203 485.144C47.6493 486.601 44.8173 487.187 39.0463 487.127C37.0863 487.115 35.9993 487.163 34.9843 487.306C33.5383 487.509 33.1083 487.473 32.5223 487.091C32.1283 486.828 31.7693 486.207 31.7693 485.789C31.7693 484.905 33.4063 482.611 35.1873 480.998C36.6323 479.683 36.9673 479.444 38.8073 478.357C39.6913 477.843 40.6593 477.186 40.9703 476.911C41.8183 476.147 42.3683 474.952 43.4193 471.618C43.9213 470.005 44.7213 467.616 45.2113 466.301C46.8243 461.868 48.3063 456.074 49.0233 451.426C49.6323 447.447 49.7163 446.276 49.7753 440.589L49.8353 435.176L49.1783 434.077C48.3543 432.679 46.7653 429.799 46.0723 428.413C44.1603 424.59 41.5673 416.967 40.6833 412.534C40.2053 410.145 40.0503 409.01 39.6553 405.126C38.9743 398.507 38.2933 394.516 37.0983 390.131C36.2743 387.144 35.8563 385.137 35.3063 381.636C34.5303 376.69 34.2313 373.762 34.0403 369.103C33.9443 366.701 33.8843 366.127 33.6213 365.16C33.2033 363.618 32.9053 363.033 31.8413 361.635C30.3123 359.64 29.1413 356.915 29.1413 355.374C29.1413 354.753 29.4993 352.972 29.7983 352.076C29.9063 351.742 30.3123 350.81 30.6943 349.985C31.4353 348.384 31.7463 347.476 32.1163 345.708C32.2473 345.099 32.4863 344.358 32.6303 344.047C33.2753 342.769 34.0403 342.697 36.9073 343.629C39.9183 344.609 40.4923 344.728 42.1053 344.74C43.4193 344.74 43.6583 344.704 45.0323 344.298C48.0793 343.402 49.7643 343.163 51.5923 343.402C52.6073 343.533 55.6423 344.262 57.4583 344.812C59.6453 345.469 60.9233 345.696 62.7873 345.768L64.6033 345.839L65.5953 345.122C67.7463 343.569 69.6813 342.816 74.6403 341.574C77.4833 340.857 77.7823 340.821 78.2603 341.084" fill="#080506" fill-rule="evenodd" opacity="1" stroke="none" vectornator:layerName="path"/>
</g>
</svg>
