<?xml version="1.0" encoding="UTF-8" standalone="no"?>
<!DOCTYPE svg PUBLIC "-//W3C//DTD SVG 1.1//EN" "http://www.w3.org/Graphics/SVG/1.1/DTD/svg11.dtd">
<!-- Created with Vectornator (http://vectornator.io/) -->
<svg height="100%" stroke-miterlimit="10" style="fill-rule:nonzero;clip-rule:evenodd;stroke-linecap:round;stroke-linejoin:round;" version="1.1" viewBox="218.915 304.948 136.701 182.48" width="100%" xml:space="preserve" xmlns="http://www.w3.org/2000/svg" xmlns:vectornator="http://vectornator.io" xmlns:xlink="http://www.w3.org/1999/xlink">
<defs/>
<clipPath id="ArtboardFrame">
<rect height="182.48" width="136.701" x="218.915" y="304.948"/>
</clipPath>
<g clip-path="url(#ArtboardFrame)" id="Layer" vectornator:layerName="Layer">
<path d="M354.977 305.252C355.67 305.957 355.718 306.602 355.503 312.994C355.395 316.065 355.3 317.403 355.108 318.491C354.798 320.271 353.89 323.019 353.006 324.859C352.42 326.054 352.325 326.353 352.313 326.974C352.289 328.539 352.504 332.171 352.695 333.247C352.994 334.907 352.958 337.739 352.635 339.221C352.121 341.527 351.118 344.227 349.397 347.883L348.656 349.448L348.31 351.946C347.796 355.685 347.665 357.418 347.736 359.521C347.82 361.624 347.963 362.376 348.68 364.193C349.576 366.499 349.923 368.219 350.449 372.903C351.201 379.654 351.309 381.948 351.046 385.52C350.879 387.719 350.401 391.673 350.09 393.298C349.218 397.875 347.02 404.028 344.439 409.118C340.783 416.323 340.03 417.816 339.014 420.05C337.652 423.014 337.473 423.492 336.589 426.479C334.928 432.154 334.558 434.054 333.422 442.513C333.124 444.747 332.371 449.813 331.738 453.78C331.116 457.747 330.567 461.427 330.531 461.965C330.459 463.16 330.77 465.406 331.403 468.106C331.774 469.731 332.682 472.933 332.837 473.184C332.861 473.22 333.303 473.077 333.805 472.838C334.307 472.611 334.916 472.384 335.167 472.36C335.693 472.288 336.816 472.599 337.545 473.017C340.161 474.522 342.754 479.911 341.703 481.643C341.511 481.966 340.484 482.504 339.289 482.898C338.441 483.185 338.261 483.197 335.728 483.197C334.259 483.197 331.977 483.256 330.638 483.34C327.687 483.519 327.389 483.472 324.378 482.468C321.904 481.643 321.211 481.309 320.638 480.676C320.136 480.114 320.017 479.66 319.921 477.999C319.885 477.27 319.742 475.454 319.598 473.949L319.335 471.225L319.622 469.229C319.873 467.521 319.921 466.816 319.909 464.139C319.909 460.913 319.73 459.073 319.025 455.059C318.893 454.33 318.654 452.812 318.487 451.677C317.938 447.949 316.301 440.793 315.584 438.964C315.393 438.487 315.142 437.794 315.034 437.435C314.915 437.077 314.795 436.706 314.771 436.611C314.735 436.515 314.496 436.73 314.138 437.172L313.564 437.901L313.851 439.55C314.246 441.748 314.257 443.326 313.899 444.962C313.636 446.145 313.624 446.348 313.72 448.368C313.78 449.551 313.827 451.677 313.815 453.087C313.815 455.465 313.792 455.752 313.493 456.97C312.716 460.113 312.131 461.559 310.816 463.506C309.944 464.808 308.749 466.123 308.152 466.445C307.351 466.864 306.467 466.78 305.607 466.194C305.105 465.848 304.854 465.752 304.436 465.752C303.755 465.752 302.787 465.466 302.393 465.155C302.226 465.035 301.939 464.629 301.748 464.271C301.521 463.829 301.258 463.53 300.971 463.363C300.171 462.921 299.49 461.941 299.035 460.615C298.94 460.316 298.689 459.3 298.474 458.344C298.259 457.389 298.044 456.564 297.996 456.516C297.948 456.457 297.542 457.329 297.1 458.44C296.383 460.28 296.18 460.65 294.901 462.538C293.814 464.139 293.097 465.394 291.819 467.951C290.457 470.651 290.194 471.249 290.397 471.201C291.078 470.998 292.978 470.639 294.471 470.424C297.255 470.018 298.964 469.946 303.97 470.054C309.12 470.149 309.084 470.149 311.736 471.01C314.054 471.762 316.611 473.268 317.077 474.152C317.352 474.702 317.328 475.861 317.006 476.494C316.432 477.605 314.998 478.752 312.872 479.815C311.713 480.401 310.793 480.7 309 481.106C307.136 481.512 306.228 481.799 304.281 482.563C300.517 484.033 298.247 484.248 282.941 484.631C280.277 484.702 277.887 484.774 277.624 484.81C277.361 484.846 275.366 484.929 273.203 484.989C271.029 485.061 268.209 485.192 266.931 485.288C265.652 485.383 262.856 485.574 260.718 485.706C255.699 486.016 251.673 486.351 247.515 486.781C242.616 487.295 240.477 487.414 235.686 487.426C231.158 487.438 230.871 487.414 228.218 486.829C226.51 486.447 223.367 485.431 222.459 484.977C222.077 484.786 221.492 484.332 221.145 483.973C220.811 483.615 220.452 483.316 220.368 483.316C220.285 483.316 220.034 483.149 219.795 482.946C218.803 482.074 218.636 479.851 219.365 477.079C220.177 473.997 220.906 472.228 224.132 465.454C226.617 460.22 227.047 459.205 228.732 454.521C230.25 450.291 230.811 448.439 231.803 444.449C233.643 436.957 234.85 434.221 238.506 429.286C240.298 426.873 240.931 425.809 242.377 422.739C243.703 419.907 246.26 414.925 247.132 413.431C248.16 411.675 249.618 409.608 252.139 406.346C254.982 402.654 256.046 401.399 259.439 397.707C264.374 392.354 268.675 388.232 273.861 383.895C275.139 382.82 276.991 381.243 277.983 380.382C282.165 376.726 285.809 374.062 289.991 371.6C291.138 370.919 292.787 369.928 293.647 369.378C294.507 368.84 295.75 368.123 296.407 367.801C297.984 367 298.641 366.439 300.577 364.24C301.473 363.213 303.229 361.325 304.484 360.035C307.005 357.406 307.089 357.286 308.63 353.678C310.159 350.094 310.207 349.425 309.132 344.657C308.14 340.236 308.068 339.806 307.901 337.417C307.71 334.645 307.889 331.072 308.403 327.201L308.654 325.265L308.068 324.548C306.575 322.756 305.858 321.095 305.416 318.431C304.986 315.838 304.902 314.476 304.986 311.381C305.093 307.343 305.261 306.244 305.894 305.61C306.216 305.3 306.312 305.264 306.79 305.324C307.435 305.395 309.418 306.53 312.872 308.813C317.101 311.62 318.858 313.257 320.017 315.527L320.518 316.507L321.056 316.447C321.355 316.412 321.869 316.328 322.215 316.28C322.562 316.22 323.876 316.113 325.142 316.029C327.114 315.91 327.771 315.922 329.718 316.089C330.961 316.197 332.61 316.28 333.363 316.28C334.653 316.292 335.167 316.34 337.067 316.627C337.497 316.698 338.214 316.758 338.668 316.782L339.492 316.806L340.281 315.97C340.806 315.408 341.308 314.691 341.774 313.819C342.73 312.039 343.339 311.214 344.427 310.199C345.514 309.183 348.465 307.176 349.803 306.542C351.094 305.921 353.4 305.085 354.069 304.989C354.571 304.906 354.654 304.929 354.977 305.252" fill="#080506" fill-rule="evenodd" opacity="1" stroke="none" vectornator:layerName="path"/>
</g>
</svg>
