<?xml version="1.0" encoding="UTF-8" standalone="no"?>
<!DOCTYPE svg PUBLIC "-//W3C//DTD SVG 1.1//EN" "http://www.w3.org/Graphics/SVG/1.1/DTD/svg11.dtd">
<!-- Created with Vectornator (http://vectornator.io/) -->
<svg height="100%" stroke-miterlimit="10" style="fill-rule:nonzero;clip-rule:evenodd;stroke-linecap:round;stroke-linejoin:round;" version="1.1" viewBox="387.853 14.572 83.114 176.173" width="100%" xml:space="preserve" xmlns="http://www.w3.org/2000/svg" xmlns:vectornator="http://vectornator.io" xmlns:xlink="http://www.w3.org/1999/xlink">
<defs/>
<clipPath id="ArtboardFrame">
<rect height="176.173" width="83.114" x="387.853" y="14.572"/>
</clipPath>
<g clip-path="url(#ArtboardFrame)" id="Layer" vectornator:layerName="Layer">
<path d="M465.297 185.612C465.297 185.68 465.229 185.749 465.147 185.749C465.078 185.749 465.051 185.68 465.092 185.612C465.133 185.53 465.201 185.475 465.242 185.475C465.27 185.475 465.297 185.53 465.297 185.612M429.297 14.7768C428.641 15.1188 427.944 15.8428 426.018 18.2468C425.02 19.4908 423.695 21.0478 423.08 21.7308C422.452 22.4008 421.536 23.4798 421.044 24.1218C419.501 26.1168 417 28.5488 414.268 30.7488C409.664 34.4368 407.368 37.2108 404.062 43.1128C402.19 46.4468 401.685 47.6488 401.302 49.6568C401.056 51.0238 400.605 51.9938 399.239 54.2748C397.19 57.6498 396.329 59.4668 395.031 63.2648C393.665 67.2408 392.326 70.7378 390.673 74.5908C388.173 80.4388 387.749 82.2828 387.872 86.6138C387.995 90.5758 389.334 100.618 390.304 104.73C390.837 107.026 391.452 108.652 392.859 111.425C395.755 117.136 395.769 117.245 395.619 124.541C395.564 126.823 395.605 127.273 395.933 129.186C396.315 131.345 396.493 132.11 397.518 135.539C398.337 138.299 398.652 139.132 400.155 142.712C401.685 146.346 401.821 146.592 402.19 146.496C402.341 146.456 402.464 146.51 402.505 146.66C403.925 151.579 404.281 153.642 404.527 158.178C404.636 160.555 404.65 161.593 404.527 162.577C404.253 164.722 403.857 165.542 402.067 167.605C401.002 168.835 400.278 170.078 399.936 171.266C399.827 171.676 399.676 172.906 399.594 173.999C399.485 175.816 399.43 176.089 398.925 177.415C397.613 180.816 397.668 183.836 399.048 185.516C400.442 187.21 402.86 187.798 406.016 187.21C407.396 186.965 407.3 186.951 410.579 187.456C412.369 187.73 414.418 187.716 416.085 187.429C416.809 187.306 417.629 187.224 417.888 187.224C418.681 187.265 421.591 187.661 422.534 187.866C424.651 188.317 426.919 188.618 430.048 188.891C432.958 189.137 437.672 189.724 443.027 190.503C445.623 190.872 450.665 190.817 454.504 190.353C459.094 189.806 461.157 189.192 463.029 187.798C463.453 187.497 464.177 187.129 464.655 186.978C465.734 186.637 466.909 185.885 467.947 184.847C469.355 183.44 469.929 182.319 470.584 179.669C470.926 178.33 470.967 177.92 470.967 175.843C470.967 171.089 469.97 167.086 466.691 158.478C465.051 154.202 464.477 152.494 463.917 150.158C463.412 148.109 463.384 147.576 463.644 144.966C463.876 142.657 463.78 139.993 463.398 137.862C463.234 136.987 463.111 135.744 463.111 134.883C463.111 132.178 462.469 130.006 460.501 126.03C458.821 122.642 457.66 120.579 456.116 118.27C454.066 115.223 452.427 112.504 451.935 111.357C451.676 110.742 450.938 108.187 450.268 105.55C449.011 100.618 448.438 98.8688 447.522 97.2838C446.334 95.2488 445.118 93.7868 441.292 89.8108C440.09 88.5818 439.011 87.3378 438.888 87.0648C438.737 86.7508 438.587 85.9448 438.505 84.9608C438.327 82.8428 437.972 81.1348 437.234 78.8268C436.592 76.8448 436.333 75.6568 436.333 74.7958C436.333 74.5088 436.278 74.2358 436.196 74.1948C436.128 74.1538 436.059 73.5658 436.059 72.9108C436.059 71.8858 436.1 71.6668 436.333 71.4618C436.592 71.2298 436.661 71.2298 438.136 71.5438C439.338 71.7898 440.131 71.8588 441.661 71.8588C443.929 71.8718 444.749 71.6948 446.525 70.8478C447.672 70.3008 448.205 69.8088 449.626 67.9788C449.94 67.5688 450.542 66.9678 450.951 66.6398C452.728 65.2318 453.397 64.5488 453.752 63.8118C454.08 63.1558 454.121 62.9508 454.066 62.0078C453.971 60.4508 453.725 59.8898 451.047 55.2858C450.063 53.5918 449.039 51.2968 448.697 50.0128C448.574 49.5618 448.424 48.3998 448.356 47.4168C448.287 46.4468 448.123 45.1488 448 44.5478C447.563 42.3068 446.211 40.2848 443.219 37.3748C441.975 36.1718 441.319 35.6528 440.418 35.1608C439.762 34.8058 439.202 34.4098 439.147 34.2868C438.956 33.7818 439.106 33.2078 439.776 31.9508C440.445 30.6668 441.934 26.7858 441.934 26.3078C441.934 26.0348 441.374 25.4878 441.087 25.4878C440.623 25.4878 438.382 26.2258 437.303 26.7318C436.1 27.2918 435.294 27.8378 433.942 29.0268C433.491 29.4228 433.013 29.7238 432.849 29.7238C432.193 29.7238 432.179 29.6148 432.07 23.9308C431.974 18.1928 431.851 17.0858 431.223 15.7198C431.004 15.2278 430.758 14.9138 430.471 14.7768C429.966 14.5038 429.816 14.5038 429.297 14.7768" fill="#080506" fill-rule="evenodd" opacity="1" stroke="none" vectornator:layerName="path"/>
</g>
</svg>
