<?xml version="1.0" encoding="UTF-8" standalone="no"?>
<!DOCTYPE svg PUBLIC "-//W3C//DTD SVG 1.1//EN" "http://www.w3.org/Graphics/SVG/1.1/DTD/svg11.dtd">
<!-- Created with Vectornator (http://vectornator.io/) -->
<svg height="100%" stroke-miterlimit="10" style="fill-rule:nonzero;clip-rule:evenodd;stroke-linecap:round;stroke-linejoin:round;" version="1.1" viewBox="22.3099 54.3574 239.588 176.801" width="100%" xml:space="preserve" xmlns="http://www.w3.org/2000/svg" xmlns:vectornator="http://vectornator.io" xmlns:xlink="http://www.w3.org/1999/xlink">
<defs/>
<clipPath id="ArtboardFrame">
<rect height="176.801" width="239.588" x="22.3099" y="54.3574"/>
</clipPath>
<g clip-path="url(#ArtboardFrame)" id="Layer" vectornator:layerName="Layer">
<path d="M39.1761 54.4224C41.0811 54.6834 44.2781 56.2594 46.4441 58.0054C47.8841 59.1614 50.7411 61.9624 52.0341 63.4934C55.8321 67.9604 58.1561 72.5974 58.9501 77.2464C59.3921 79.8994 59.4151 82.6664 59.0181 86.2374C58.6331 89.6504 58.6781 93.2334 59.1321 95.2854C59.6301 97.5984 60.9911 100.66 62.7941 103.574C65.2541 107.52 66.0251 108.234 69.9031 110.173C71.8301 111.136 72.8281 111.749 77.6021 114.867C79.2231 115.933 80.9011 117.01 81.3431 117.259C81.7741 117.52 82.9761 118.268 84.0081 118.926C86.3781 120.434 87.5001 121.001 89.0421 121.488C89.7901 121.726 90.3911 121.987 90.5731 122.157C90.8561 122.418 91.0491 122.452 94.3261 122.781C102.263 123.575 106.072 123.688 109.236 123.189C114.791 122.327 116.606 122.169 119.644 122.259C123.171 122.361 129.656 123.212 135.541 124.323C140.722 125.309 148.455 126.455 152.662 126.874C153.966 126.999 156.086 127.237 157.367 127.384C158.648 127.532 160.349 127.713 161.165 127.781C161.97 127.849 163.58 127.997 164.737 128.121C168.921 128.552 169.148 128.541 172.277 127.951C175.021 127.43 176.381 127.441 181.881 128.065C184.148 128.314 191.325 129.391 193.196 129.765C196.938 130.502 202.584 130.48 209.297 129.697C212.539 129.323 212.846 129.232 216.837 127.486C220.567 125.865 222.268 125.411 224.615 125.4C226.372 125.4 230.601 124.958 231.803 124.64C233.187 124.289 233.595 124.017 235.817 121.84C238.119 119.595 239.479 118.518 240.885 117.792C242.042 117.202 242.756 117.1 243.142 117.463C243.289 117.599 243.448 117.86 243.482 118.03C243.573 118.45 243.187 120.162 242.518 122.293C241.804 124.538 241.611 125.57 241.611 127.044C241.611 127.917 241.656 128.246 241.77 128.348C241.86 128.416 242.099 128.972 242.28 129.573C242.688 130.865 243.414 132.203 244.593 133.813C245.523 135.094 246.294 135.922 247.654 137.113C249.026 138.326 249.389 139.097 250.058 142.306C250.444 144.12 250.478 144.222 251.464 146.161C252.587 148.36 253.074 149.551 253.358 150.741C253.675 152.091 253.414 153.655 252.689 154.732C252.382 155.197 252.167 155.356 251.215 155.821C249.945 156.445 249.491 156.864 248.527 158.281C247.484 159.812 246.838 160.129 244.434 160.311C243.516 160.379 242.62 160.413 242.45 160.379C242.269 160.345 240.919 160.266 239.457 160.209C235.477 160.05 233.958 159.857 231.123 159.177C229.581 158.803 229.014 158.78 227.926 159.018C226.95 159.245 223.776 160.368 223.175 160.708C222.529 161.071 222.2 161.74 222.132 162.817C222.064 163.996 222.302 165.084 223.243 167.976C224.252 171.071 224.49 172.284 224.717 175.538C224.774 176.457 224.83 177.693 224.83 178.282C224.83 179.597 225.114 181.593 225.42 182.409C225.545 182.738 226.123 183.713 226.701 184.575C227.279 185.437 228.175 186.82 228.685 187.659C230.76 191.049 231.973 192.523 233.924 194.008C235.919 195.528 237.121 196.56 238.062 197.557C239.083 198.623 241.225 201.299 242.575 203.181C243.992 205.165 246.532 208.556 247.144 209.304C248.097 210.449 249.707 212.036 251.305 213.431C253.754 215.551 254.015 215.755 255.308 216.515C257.984 218.102 258.437 218.42 259.696 219.679C261 220.982 261.464 221.674 261.748 222.729C261.941 223.42 261.941 223.738 261.782 224.293C261.623 224.894 260.591 225.971 259.764 226.414C257.893 227.4 254.775 228.239 252.938 228.239C251.691 228.239 249.967 227.967 249.264 227.672C247.087 226.742 243.709 223.318 240.636 218.919C238.674 216.13 237.246 214.656 232.325 210.336C230.205 208.465 228.356 207.218 225.964 206.016C224.32 205.188 223.05 204.417 221.043 203.022C218.798 201.458 217.358 200.233 214.399 197.342C213.118 196.083 211.587 194.689 210.997 194.224C210.408 193.759 209.467 192.999 208.923 192.546C207.505 191.367 206.337 190.845 202.72 189.813C197.255 188.237 195.804 187.806 194.443 187.364C192.527 186.752 191.008 186.446 188.854 186.287C186.801 186.128 185.429 186.253 183.286 186.786C180.327 187.534 176.268 189.813 174.238 191.866C173.116 193.011 172.424 193.997 171.007 196.548C169.862 198.601 169.295 199.882 168.932 201.197C168.649 202.206 167.141 206.333 166.494 207.83C166.268 208.363 165.723 209.485 165.281 210.324C163.864 213.057 162.821 216.107 162.73 217.864C162.673 218.715 162.696 218.794 163.002 219.236C163.172 219.486 163.875 220.2 164.567 220.824C167.662 223.602 168.07 224.146 168.07 225.461C168.07 226.629 167.696 227.196 166.642 227.672C165.372 228.228 162.004 228.443 160.27 228.069C159.283 227.865 156.505 226.765 155.564 226.209C154 225.28 153.002 224.259 152.378 222.978C151.755 221.651 151.652 221.05 151.652 218.488C151.652 216.413 151.686 215.994 151.97 214.576C152.14 213.703 152.401 212.195 152.548 211.231C152.798 209.587 153.319 207.603 153.841 206.265C154.192 205.37 154.396 204.485 154.589 202.898C154.691 202.081 155.031 200.222 155.337 198.759C156.154 194.859 156.245 193.43 155.882 189.915C155.825 189.326 155.7 187.874 155.61 186.695C155.508 185.21 155.405 184.518 155.303 184.45C154.952 184.212 153.784 184.45 151.947 185.142C148.5 186.434 146.539 186.65 136.618 186.854C133.092 186.933 130.711 187.035 129.1 187.194C127.808 187.319 125.79 187.466 124.622 187.534C121.64 187.693 119.678 187.954 117.921 188.396C115.177 189.088 113.624 189.938 109.837 192.784C104.904 196.48 101.378 199.791 98.3401 203.544C96.1631 206.243 95.9921 206.583 95.9811 208.227L95.9701 209.361L96.6501 210.631C97.3531 211.968 98.8721 214.1 99.8481 215.109C100.687 215.994 105.052 220.075 105.834 220.722C106.843 221.549 106.945 221.595 108.907 222.218C112.206 223.273 114.429 224.599 115.12 225.96C115.415 226.527 115.755 227.933 115.755 228.579C115.755 230.064 114.769 230.62 111.447 231.028C109.769 231.232 109.168 231.21 106.174 230.858C103.975 230.597 102.909 230.359 101.299 229.77C98.3621 228.715 96.1741 227.287 94.0421 225.019C93.2711 224.203 92.0471 222.819 91.3211 221.946C89.2241 219.452 87.3871 217.558 85.5391 215.982C84.5971 215.189 83.3501 214.123 82.7611 213.612C82.1711 213.102 80.9351 212.082 80.0281 211.345C77.5791 209.361 77.2841 208.93 77.2961 207.32C77.3071 205.834 77.9991 204.258 79.5971 202.127C81.0601 200.154 81.5591 198.997 81.7521 197.07C81.9441 195.199 81.8201 193.124 81.3551 190.879C80.4821 186.627 80.1531 185.267 79.9831 185.267C79.6091 185.267 76.7401 187.115 75.6291 188.067C74.3361 189.178 73.2481 189.893 72.2841 190.267C71.1161 190.72 68.9171 191.219 66.7171 191.548C59.8911 192.569 58.1341 192.897 55.6391 193.612C52.9631 194.383 50.6391 195.403 48.7461 196.662C47.2041 197.693 46.1261 198.895 42.1691 204.088C40.7751 205.914 38.3821 210.336 37.7361 212.252C37.4071 213.25 37.3731 213.499 37.2941 215.54C37.1921 217.955 36.9651 219.089 36.2731 220.812C35.6951 222.275 34.3911 224.032 33.5071 224.554C32.4751 225.155 30.6841 225.427 29.3681 225.178C28.5071 225.019 26.5001 224.225 25.8761 223.806C24.9921 223.205 22.8261 221.255 22.5431 220.801C21.9641 219.86 22.4411 218.488 24.2211 215.914C25.8311 213.578 26.0691 213.159 26.3411 212.014C26.4321 211.674 26.7151 210.631 26.9761 209.701C27.2371 208.76 27.6221 207.365 27.8261 206.583C28.0301 205.8 28.5291 204.066 28.9371 202.728C29.7771 199.95 30.4911 197.365 30.8201 195.868C31.6591 192.126 32.2601 189.847 32.8151 188.215C33.9041 185.063 34.8901 183.214 36.0241 182.194C37.3391 181.015 40.6271 179.677 44.0971 178.917C47.6571 178.135 50.0151 176.922 53.3041 174.166C55.1401 172.624 58.2811 168.679 59.3361 166.581C59.8691 165.527 60.7301 163.259 61.1611 161.796C61.9431 159.086 62.2381 157.25 62.4651 153.587C62.6241 151.15 62.8051 150.106 63.3611 148.542C63.9731 146.807 64.7781 145.378 66.3991 143.235C69.6081 138.949 70.2201 137.351 69.7781 134.357C69.5401 132.736 68.7461 130.491 67.8621 128.938C67.5221 128.337 67.1481 127.634 67.0461 127.384C66.5351 126.16 64.8911 124.357 62.5331 122.463C61.7281 121.817 60.8101 121.058 60.4921 120.774C60.1751 120.491 59.3241 119.822 58.6101 119.289C57.8961 118.767 56.7961 117.905 56.1721 117.395C55.5491 116.885 54.7101 116.205 54.3011 115.876C53.2811 115.082 50.9681 112.905 50.2201 112.044C46.7611 108.041 43.0991 100.921 41.7271 95.5244C41.0921 93.0184 40.9901 92.0544 40.9791 88.8914C40.9791 85.9884 40.9901 85.8184 41.3421 83.8454C41.8181 81.2034 42.0561 78.7774 42.1351 75.7044C42.2031 73.0514 42.1131 71.8944 41.6931 70.5224C41.0241 68.3344 39.7881 66.2034 37.5091 63.3574C35.7401 61.1464 34.5391 58.6404 34.5391 57.1434C34.5391 55.2504 36.5461 54.0594 39.1761 54.4224" fill="#080506" fill-rule="evenodd" opacity="1" stroke="none" vectornator:layerName="path"/>
</g>
</svg>
